<svg xmlns="http://www.w3.org/2000/svg" width="800" height="500" viewBox="0 0 800 500"><rect width="100%" height="100%" fill="#e2e8f0"/><path fill="#94a3b8" d="M221.03 210.18h13.27v80.98h-7.73q-1.79 0-3-.59-1.2-.59-2.32-1.99l-42.28-53.98q.34 3.7.34 6.83v49.73h-13.28v-80.98h7.9q.95 0 1.65.09.7.08 1.23.33.54.26 1.04.73.5.48 1.12 1.26l42.45 54.21q-.17-1.96-.28-3.86-.11-1.91-.11-3.53zm54.54 22.63q6.38 0 11.62 2.07t8.96 5.88 5.74 9.3q2.02 5.48 2.02 12.26 0 6.83-2.02 12.32t-5.74 9.35q-3.72 3.87-8.96 5.94T275.57 292q-6.44 0-11.7-2.07-5.27-2.07-8.99-5.94-3.73-3.86-5.77-9.35t-2.04-12.32q0-6.78 2.04-12.26 2.04-5.49 5.77-9.3 3.72-3.81 8.99-5.88 5.26-2.07 11.7-2.07m0 48.55q7.17 0 10.61-4.82 3.45-4.81 3.45-14.11 0-9.29-3.45-14.17-3.44-4.87-10.61-4.87-7.28 0-10.78 4.9t-3.5 14.14 3.5 14.09q3.5 4.84 10.78 4.84m83.38-30.46h11.26q4.14 0 7.22-1.04t5.13-2.97q2.04-1.93 3.05-4.7t1.01-6.19q0-3.25-1.01-5.88t-3.02-4.48q-2.02-1.85-5.1-2.83t-7.28-.98h-11.26zm-15.06-40.72h26.32q8.12 0 14.06 1.91 5.93 1.9 9.8 5.32 3.86 3.41 5.74 8.17 1.87 4.76 1.87 10.42 0 5.88-1.96 10.78t-5.88 8.43-9.83 5.49q-5.9 1.96-13.8 1.96h-11.26v28.5h-15.06zm80.98-2.24v31.92q3.36-3.13 7.39-5.09t9.46-1.96q4.71 0 8.35 1.59 3.64 1.6 6.07 4.48 2.44 2.89 3.7 6.89 1.26 4.01 1.26 8.82v36.57h-13.83v-36.57q0-5.26-2.41-8.15-2.41-2.88-7.34-2.88-3.58 0-6.72 1.62-3.13 1.63-5.93 4.43v41.55h-13.84v-83.22zm74.76 24.87q6.38 0 11.62 2.07 5.23 2.07 8.96 5.88 3.72 3.81 5.74 9.3 2.01 5.48 2.01 12.26 0 6.83-2.01 12.32-2.02 5.49-5.74 9.35-3.73 3.87-8.96 5.94-5.24 2.07-11.62 2.07-6.44 0-11.71-2.07-5.26-2.07-8.99-5.94-3.72-3.86-5.76-9.35-2.05-5.49-2.05-12.32 0-6.78 2.05-12.26 2.04-5.49 5.76-9.3 3.73-3.81 8.99-5.88 5.27-2.07 11.71-2.07m0 48.55q7.16 0 10.61-4.82 3.44-4.81 3.44-14.11 0-9.29-3.44-14.17-3.45-4.87-10.61-4.87-7.28 0-10.78 4.9t-3.5 14.14 3.5 14.09q3.5 4.84 10.78 4.84m58.07 10.7q-7.51 0-11.51-4.23t-4-11.68v-32.09h-5.88q-1.12 0-1.91-.72-.78-.73-.78-2.19v-5.49l9.24-1.51 2.91-15.68q.28-1.12 1.06-1.73.79-.62 2.02-.62h7.17v18.09h15.34v9.85h-15.34v31.14q0 2.69 1.31 4.2 1.32 1.51 3.62 1.51 1.28 0 2.15-.31.87-.3 1.51-.64.65-.34 1.15-.64.51-.31 1.01-.31.62 0 1.01.31.39.3.84.92l4.14 6.72q-3.02 2.52-6.94 3.81t-8.12 1.29m47.93-59.25q6.39 0 11.62 2.07 5.24 2.07 8.96 5.88 3.73 3.81 5.74 9.3 2.02 5.48 2.02 12.26 0 6.83-2.02 12.32-2.01 5.49-5.74 9.35-3.72 3.87-8.96 5.94-5.23 2.07-11.62 2.07-6.44 0-11.7-2.07t-8.99-5.94q-3.72-3.86-5.77-9.35-2.04-5.49-2.04-12.32 0-6.78 2.04-12.26 2.05-5.49 5.77-9.3 3.73-3.81 8.99-5.88t11.7-2.07m0 48.55q7.17 0 10.62-4.82 3.44-4.81 3.44-14.11 0-9.29-3.44-14.17-3.45-4.87-10.62-4.87-7.28 0-10.78 4.9t-3.5 14.14 3.5 14.09q3.5 4.84 10.78 4.84"/></svg>